<svg width="52" height="63" viewBox="0 0 52 63" fill="none" xmlns="http://www.w3.org/2000/svg">
<path d="M1.11089 8.19372C0.692557 7.67315 0.381898 7.0746 0.196981 6.43288C0.0120644 5.79116 -0.0434245 5.11907 0.0337533 4.45572C0.110931 3.79236 0.319233 3.15096 0.646538 2.56884C0.973842 1.98671 1.41361 1.47547 1.94028 1.06484C2.46696 0.654219 3.07002 0.352407 3.7144 0.17696C4.35877 0.0015127 5.0316 -0.0440674 5.69375 0.0428704C6.3559 0.129808 6.99415 0.347528 7.5714 0.683369C8.14864 1.01921 8.65335 1.46647 9.05617 1.99913L23.336 20.2773C23.4445 20.4172 23.5673 20.5629 23.6873 20.6914C21.9385 20.9769 20.2896 21.6974 18.8923 22.7869C17.4949 23.8763 16.3939 25.2997 15.6906 26.926C15.5999 26.7683 15.4978 26.6175 15.385 26.4747L1.11089 8.19372Z" fill="#282828"/>
<path d="M50.0278 54.4404C50.4482 54.96 50.7609 55.5582 50.9478 56.1999C51.1347 56.8417 51.1921 57.5142 51.1165 58.1783C51.0409 58.8425 50.8339 59.4849 50.5076 60.0682C50.1812 60.6516 49.7421 61.1641 49.2157 61.5761C48.6893 61.988 48.0862 62.2911 47.4415 62.4676C46.7969 62.6442 46.1235 62.6907 45.4607 62.6044C44.7978 62.5182 44.1588 62.3009 43.5808 61.9652C43.0028 61.6295 42.4974 61.1822 42.094 60.6492L27.8141 42.371C27.5797 42.0652 27.306 41.7915 27.0002 41.5571C28.7896 41.2832 30.4787 40.5542 31.9055 39.44C33.3323 38.3258 34.4489 36.8637 35.1483 35.194C35.3096 35.5369 35.5089 35.8607 35.7423 36.1593L50.0278 54.4404Z" fill="#282828"/>
<path d="M24.0528 41.6256C23.7906 41.8437 23.5531 42.0898 23.3446 42.3596L9.06473 60.6378C8.24139 61.6914 7.03322 62.3748 5.70601 62.5376C4.3788 62.7004 3.04126 62.3294 1.98764 61.506C0.934033 60.6827 0.25065 59.4745 0.0878286 58.1473C-0.074993 56.8201 0.296091 55.4825 1.11944 54.4289L15.3993 36.1508C15.539 35.9695 15.666 35.7786 15.7791 35.5796C16.5331 37.2058 17.6894 38.6128 19.1386 39.6678C20.5879 40.7227 22.2822 41.3907 24.0614 41.6085" fill="#282828"/>
<path d="M27.3486 20.7885C27.5143 20.6328 27.668 20.4647 27.8084 20.2859L42.0883 2.00771C42.4952 1.48695 43.0007 1.05144 43.5759 0.72605C44.1512 0.400657 44.7849 0.191753 45.4409 0.111265C46.0968 0.0307765 46.7622 0.0802799 47.3991 0.256949C48.0359 0.433618 48.6317 0.733992 49.1525 1.14092C49.6732 1.54785 50.1087 2.05337 50.4341 2.62861C50.7595 3.20385 50.9684 3.83754 51.0489 4.49352C51.1294 5.14949 51.0799 5.8149 50.9032 6.45174C50.7266 7.08858 50.4262 7.68439 50.0193 8.20515L35.7394 26.4833C35.5318 26.7494 35.3528 27.0366 35.2054 27.3401C34.5565 25.6729 33.495 24.1977 32.1204 23.0528C30.7457 21.9079 29.1028 21.1308 27.3458 20.7942" fill="#282828"/>
<path d="M32.2152 31.3185C32.2158 32.6324 31.8266 33.9171 31.0971 35.0099C30.3675 36.1027 29.3302 36.9546 28.1164 37.4578C26.9026 37.961 25.5668 38.093 24.278 37.837C22.9892 37.581 21.8053 36.9485 20.876 36.0196C19.9466 35.0907 19.3137 33.907 19.0571 32.6183C18.8006 31.3297 18.932 29.9938 19.4347 28.7798C19.9374 27.5658 20.7888 26.5282 21.8813 25.7981C22.9738 25.068 24.2583 24.6783 25.5722 24.6783C27.3336 24.6783 29.0228 25.3778 30.2685 26.623C31.5142 27.8682 32.2144 29.5571 32.2152 31.3185Z" fill="#FF8500"/>
</svg>
