<svg width="179" height="46" viewBox="0 0 179 46" fill="none" xmlns="http://www.w3.org/2000/svg">
<path d="M10.8374 0.0562713L10.8374 2.428C10.398 2.37868 9.95615 2.35502 9.51401 2.35714C4.83516 2.35714 2.36339 5.49583 2.36339 11.4335L2.36339 17.4629L6.69836 17.4629L6.69836 19.6866L2.35506 19.6866L2.35506 45.711L5.32416e-09 45.711L1.30039e-09 11.1646C8.55682e-10 7.34653 0.989957 4.33706 2.8615 2.46343C4.49545 0.833648 6.72963 -7.83829e-10 9.50568 -1.10717e-09C9.98919 -1.16348e-09 10.4206 0.0187571 10.8374 0.0562713Z" fill="#282828"/>
<path d="M124.203 0.14798L121.848 0.14798L121.848 45.8152L124.203 45.8152L124.203 0.14798Z" fill="#282828"/>
<path d="M142.468 6.13981C142.163 5.75992 141.936 5.32313 141.802 4.85484C141.667 4.38655 141.626 3.8961 141.682 3.41202C141.739 2.92794 141.891 2.45989 142.13 2.03508C142.368 1.61028 142.689 1.23721 143.074 0.937555C143.458 0.637904 143.898 0.417658 144.368 0.289627C144.839 0.161596 145.33 0.128334 145.813 0.191776C146.296 0.255219 146.762 0.414099 147.183 0.659176C147.604 0.904254 147.972 1.23064 148.266 1.61935L158.687 14.9577C158.766 15.0598 158.856 15.1661 158.943 15.2599C157.667 15.4682 156.464 15.994 155.444 16.7891C154.425 17.5841 153.621 18.6228 153.108 19.8096C153.042 19.6945 152.967 19.5844 152.885 19.4803L142.468 6.13981Z" fill="#282828"/>
<path d="M178.165 39.888C178.472 40.2672 178.7 40.7037 178.837 41.172C178.973 41.6404 179.015 42.1311 178.96 42.6158C178.905 43.1004 178.753 43.5692 178.515 43.9949C178.277 44.4206 177.957 44.7946 177.573 45.0953C177.188 45.3959 176.748 45.617 176.278 45.7459C175.807 45.8747 175.316 45.9086 174.832 45.8457C174.349 45.7827 173.882 45.6242 173.461 45.3792C173.039 45.1342 172.67 44.8078 172.376 44.4189L161.955 31.0805C161.784 30.8573 161.584 30.6576 161.361 30.4865C162.667 30.2867 163.899 29.7547 164.941 28.9416C165.982 28.1285 166.797 27.0616 167.307 25.8431C167.425 26.0934 167.57 26.3296 167.74 26.5475L178.165 39.888Z" fill="#282828"/>
<path d="M159.21 30.5365C159.019 30.6956 158.846 30.8753 158.693 31.0722L148.273 44.4105C147.672 45.1794 146.79 45.6781 145.822 45.7969C144.853 45.9157 143.877 45.6449 143.108 45.0441C142.339 44.4433 141.841 43.5616 141.722 42.5931C141.603 41.6246 141.874 40.6485 142.475 39.8797L152.895 26.5413C152.997 26.409 153.09 26.2697 153.172 26.1245C153.723 27.3112 154.567 28.338 155.624 29.1078C156.682 29.8776 157.918 30.3651 159.216 30.524" fill="#282828"/>
<path d="M161.615 15.3308C161.736 15.2171 161.848 15.0945 161.951 14.964L172.371 1.62561C172.668 1.24559 173.037 0.927781 173.457 0.690328C173.877 0.452875 174.339 0.300429 174.818 0.241693C175.297 0.182957 175.782 0.219082 176.247 0.348005C176.712 0.476928 177.146 0.696124 177.526 0.993078C177.907 1.29003 178.224 1.65893 178.462 2.07871C178.699 2.49848 178.852 2.96092 178.91 3.43961C178.969 3.91831 178.933 4.40388 178.804 4.86861C178.675 5.33334 178.456 5.76813 178.159 6.14815L167.738 19.4865C167.587 19.6807 167.456 19.8902 167.349 20.1118C166.875 18.8951 166.101 17.8186 165.097 16.9832C164.094 16.1477 162.895 15.5806 161.613 15.335" fill="#282828"/>
<path d="M165.167 23.015C165.167 23.9738 164.883 24.9113 164.351 25.7087C163.818 26.5062 163.061 27.1279 162.175 27.4951C161.29 27.8623 160.315 27.9586 159.374 27.7718C158.434 27.585 157.57 27.1235 156.892 26.4456C156.214 25.7677 155.752 24.9039 155.565 23.9635C155.377 23.0231 155.473 22.0483 155.84 21.1624C156.207 20.2765 156.828 19.5193 157.625 18.9865C158.423 18.4537 159.36 18.1694 160.319 18.1694C161.604 18.1694 162.837 18.6798 163.746 19.5885C164.655 20.4971 165.166 21.7296 165.167 23.015Z" fill="#FF8500"/>
<path d="M27.2645 17.2836C19.1822 17.2836 13.0924 23.4235 13.0924 31.5661L13.0924 31.6703C13.0924 39.7525 19.1864 45.8423 27.2645 45.8423C35.3425 45.8423 41.4365 39.7046 41.4365 31.5619L41.4365 31.4702C41.4365 23.388 35.3404 17.2982 27.2645 17.2982M39.1815 31.514L39.1815 31.6182C39.1815 38.4958 34.0816 43.6874 27.3207 43.6874C20.6119 43.6874 15.3558 38.3854 15.3558 31.6182L15.3558 31.514C15.3558 24.6364 20.4536 19.4449 27.2144 19.4449C33.9253 19.4449 39.1815 24.7469 39.1815 31.514Z" fill="#282828"/>
<path d="M108.301 20.3827C106.274 18.3549 103.31 17.3274 99.4939 17.3274C96.2989 17.3274 93.3853 18.0589 90.0465 19.6991L89.5693 19.9346L90.4405 21.8937L90.9552 21.6457C94.0522 20.1555 96.6699 19.4907 99.4418 19.4907C105.58 19.4907 108.82 22.5356 108.82 28.2961L108.82 29.7279C105.798 28.7955 102.653 28.32 99.4897 28.317C92.0306 28.317 87.208 31.8183 87.208 37.2328L87.208 37.3391C87.208 43.1413 92.5933 45.7819 97.5973 45.7819C103.156 45.7819 106.976 43.1747 108.82 40.6008L108.82 45.8507L111.036 45.8507L111.036 28.2419C111.036 24.8928 110.09 22.1751 108.297 20.3827M108.82 31.9954L108.82 34.9736C108.82 39.1315 104.55 43.6186 97.6494 43.6186C93.8792 43.6186 89.4776 41.9617 89.4776 37.287L89.4776 37.1807C89.4776 32.2414 94.6775 30.4824 99.5439 30.4824C103.004 30.4824 105.955 30.9638 108.82 31.9954Z" fill="#282828"/>
<path d="M66.1458 19.4865C68.6052 19.4607 71.0074 20.2281 72.9963 21.6749L73.0338 21.7019L76.4059 21.7019L76.1538 21.4664C74.3177 19.6929 71.2853 17.3315 66.1958 17.3315C58.5075 17.3315 52.2489 23.7048 52.2489 31.5369L52.2489 31.637C52.2489 39.4753 58.4846 45.8507 66.1458 45.8507C70.0202 45.8507 73.2923 44.4793 76.1496 41.6574L76.3934 41.4156L73.0422 41.4156L73.0047 41.4427C71.0451 42.9219 68.6509 43.7104 66.1958 43.6853C59.7559 43.6853 54.5248 38.2665 54.5248 31.5869L54.5248 31.4869C54.5248 24.7594 59.6329 19.4907 66.1542 19.4907" fill="#282828"/>
</svg>
