<svg width="19" height="19" viewBox="0 0 19 19" fill="none" xmlns="http://www.w3.org/2000/svg">
<path fill-rule="evenodd" clip-rule="evenodd" d="M9.8658 0.623376C4.88292 0.647709 0.863232 4.70685 0.887565 9.68973C0.911898 14.6726 4.97104 18.6923 9.95392 18.668C14.9368 18.6436 18.9565 14.5845 18.9321 9.60161C18.9078 4.61873 14.8487 0.599043 9.8658 0.623376ZM9.87218 1.92957C14.1337 1.90876 17.6052 5.3465 17.626 9.60799C17.6468 13.8695 14.209 17.341 9.94755 17.3618C5.68606 17.3826 2.21458 13.9448 2.19377 9.68335C2.17296 5.42186 5.6107 1.95038 9.87218 1.92957ZM12.6069 6.09985L8.18195 7.50838C7.97796 7.57332 7.81875 7.73409 7.75581 7.9387L6.39056 12.3772C6.23557 12.881 6.71059 13.3514 7.2129 13.1915L11.6378 11.783C11.8418 11.718 12.001 11.5573 12.064 11.3527L13.4292 6.9142C13.5842 6.41035 13.1092 5.93995 12.6069 6.09985ZM11.8137 7.72232L10.9153 10.6413L8.0052 11.5682L8.90356 8.64915L11.8137 7.72232Z" fill="#C7C9D9"/>
</svg>
