<svg width="16" height="19" viewBox="0 0 16 19" fill="none" xmlns="http://www.w3.org/2000/svg">
<circle cx="8.02828" cy="5.10343" r="4.31093" transform="rotate(-0.279791 8.02828 5.10343)" stroke="#C7C9D9" stroke-width="1.35336" stroke-linecap="round" stroke-linejoin="round"/>
<path fill-rule="evenodd" clip-rule="evenodd" d="M1.24066 15.4433C1.23802 15.1402 1.30433 14.8405 1.43459 14.5669C1.84347 13.7391 3.00577 13.2957 3.97103 13.0928C4.66715 12.9406 5.37314 12.8378 6.08373 12.7851C7.39922 12.6631 8.72288 12.6566 10.0395 12.7658C10.7505 12.8122 11.4574 12.908 12.1551 13.0528C13.1223 13.2463 14.2887 13.637 14.7058 14.5021C14.9732 15.0573 14.9763 15.7034 14.7144 16.2611C14.3057 17.1303 13.1432 17.5324 12.1779 17.727C11.4826 17.8853 10.7764 17.9909 10.0653 18.0429C8.99455 18.139 7.91847 18.1608 6.84474 18.1082C6.59698 18.1094 6.35749 18.1106 6.1095 18.0622C5.40053 18.0177 4.69601 17.919 4.00212 17.767C3.0267 17.5818 1.86859 17.191 1.44318 16.3259C1.31092 16.0504 1.24173 15.7489 1.24066 15.4433Z" stroke="#C7C9D9" stroke-width="1.35336" stroke-linecap="round" stroke-linejoin="round"/>
</svg>
