<svg width="22" height="23" viewBox="0 0 22 23" fill="none" xmlns="http://www.w3.org/2000/svg">
<path fill-rule="evenodd" clip-rule="evenodd" d="M10.8658 2.62338C5.88292 2.64771 1.86323 6.70685 1.88756 11.6897C1.9119 16.6726 5.97104 20.6923 10.9539 20.668C15.9368 20.6436 19.9565 16.5845 19.9321 11.6016C19.9078 6.61873 15.8487 2.59904 10.8658 2.62338ZM10.8722 3.92957C15.1337 3.90876 18.6052 7.3465 18.626 11.608C18.6468 15.8695 15.209 19.341 10.9475 19.3618C6.68606 19.3826 3.21458 15.9448 3.19377 11.6833C3.17296 7.42186 6.6107 3.95038 10.8722 3.92957ZM13.6069 8.09985L9.18195 9.50838C8.97796 9.57332 8.81875 9.73409 8.75581 9.9387L7.39056 14.3772C7.23557 14.881 7.71059 15.3514 8.2129 15.1915L12.6378 13.783C12.8418 13.718 13.001 13.5573 13.064 13.3527L14.4292 8.9142C14.5842 8.41035 14.1092 7.93995 13.6069 8.09985ZM12.8137 9.72232L11.9153 12.6413L9.0052 13.5682L9.90356 10.6491L12.8137 9.72232Z" fill="#C7C9D9"/>
</svg>
