<svg width="23" height="23" viewBox="0 0 23 23" fill="none" xmlns="http://www.w3.org/2000/svg">
<path fill-rule="evenodd" clip-rule="evenodd" d="M11.0901 2.4752C6.10726 2.49953 2.08757 6.55867 2.1119 11.5415C2.13623 16.5244 6.19538 20.5441 11.1782 20.5198C16.1611 20.4954 20.1808 16.4363 20.1565 11.4534C20.1321 6.47056 16.073 2.45086 11.0901 2.4752ZM11.0965 3.7814C15.358 3.76059 18.8295 7.19834 18.8503 11.4598C18.8711 15.7213 15.4333 19.1928 11.1719 19.2136C6.91038 19.2344 3.43889 15.7967 3.41808 11.5352C3.39727 7.2737 6.83502 3.80221 11.0965 3.7814ZM13.8312 7.95166L9.40625 9.36019C9.20227 9.42512 9.04305 9.5859 8.98011 9.79051L7.61486 14.229C7.45988 14.7328 7.93489 15.2032 8.4372 15.0433L12.8621 13.6348C13.0661 13.5699 13.2253 13.4091 13.2883 13.2045L14.6535 8.766C14.8085 8.26216 14.3335 7.79176 13.8312 7.95166ZM13.038 9.57413L12.1396 12.4931L9.2295 13.42L10.1279 10.501L13.038 9.57413Z" fill="#C7C9D9"/>
</svg>
