<svg width="22" height="22" viewBox="0 0 22 22" fill="none" xmlns="http://www.w3.org/2000/svg">
<path fill-rule="evenodd" clip-rule="evenodd" d="M14.8251 2.01427L17.7723 1.99987C18.9917 1.99392 19.9857 2.98686 19.9917 4.21776L20.0062 7.18963C20.0122 8.41959 19.0279 9.42313 17.8086 9.42909L14.8613 9.44348C13.641 9.44944 12.647 8.45556 12.641 7.2256L12.6265 4.25373C12.6204 3.02283 13.6048 2.02022 14.8251 2.01427Z" stroke="#C7C9D9" stroke-width="1.35336" stroke-linecap="round" stroke-linejoin="round"/>
<path fill-rule="evenodd" clip-rule="evenodd" d="M4.14571 2.06642L7.092 2.05203C8.3123 2.04607 9.30636 3.03902 9.31237 4.26991L9.32688 7.24178C9.33289 8.47175 8.34858 9.47529 7.12828 9.48124L4.18199 9.49563C2.96168 9.50159 1.96762 8.50772 1.96161 7.27775L1.9471 4.30588C1.94109 3.07498 2.9254 2.07238 4.14571 2.06642Z" stroke="#C7C9D9" stroke-width="1.35336" stroke-linecap="round" stroke-linejoin="round"/>
<path fill-rule="evenodd" clip-rule="evenodd" d="M4.19756 12.6818L7.14385 12.6674C8.36415 12.6614 9.35821 13.6544 9.36422 14.8862L9.37873 17.8571C9.38474 19.088 8.40043 20.0906 7.18013 20.0966L4.23383 20.111C3.01353 20.1169 2.01947 19.124 2.01346 17.8931L1.99896 14.9222C1.99294 13.6903 2.97725 12.6877 4.19756 12.6818Z" stroke="#C7C9D9" stroke-width="1.35336" stroke-linecap="round" stroke-linejoin="round"/>
<path fill-rule="evenodd" clip-rule="evenodd" d="M14.8769 12.6296L17.8241 12.6152C19.0435 12.6093 20.0375 13.6022 20.0435 14.834L20.0581 17.805C20.0641 19.0359 19.0798 20.0385 17.8604 20.0444L14.9132 20.0588C13.6929 20.0648 12.6988 19.0719 12.6928 17.841L12.6783 14.87C12.6723 13.6382 13.6566 12.6356 14.8769 12.6296Z" stroke="#C7C9D9" stroke-width="1.35336" stroke-linecap="round" stroke-linejoin="round"/>
</svg>
