<svg width="22" height="22" viewBox="0 0 22 22" fill="none" xmlns="http://www.w3.org/2000/svg">
<path d="M15.6813 7.95749L11.848 11.0748C11.1225 11.6493 10.1016 11.6543 9.3705 11.0869L5.47392 8.00734" stroke="#BDBDBD" stroke-width="1.35336" stroke-linecap="round" stroke-linejoin="round"/>
<path fill-rule="evenodd" clip-rule="evenodd" d="M6.29177 2.9858L14.7979 2.94427C16.0245 2.95203 17.1943 3.46483 18.0351 4.36322C18.8758 5.26161 19.3141 6.46718 19.2477 7.69916L19.2765 13.5888C19.3549 14.8201 18.9284 16.0299 18.0965 16.9364C17.2646 17.843 16.0997 18.3672 14.8733 18.3869L6.36718 18.4285C3.73276 18.4413 1.94674 16.3068 1.93388 13.6735L1.90512 7.78385C1.89226 5.15054 3.65734 2.99867 6.29177 2.9858Z" stroke="#BDBDBD" stroke-width="1.35336" stroke-linecap="round" stroke-linejoin="round"/>
</svg>
