<svg width="19" height="19" viewBox="0 0 19 19" fill="none" xmlns="http://www.w3.org/2000/svg">
<path opacity="0.4" d="M12.8598 0.867005L15.9148 0.852087C17.1799 0.845908 18.2101 1.87472 18.2164 3.15058L18.2314 6.23129C18.2377 7.50715 17.2175 8.54597 15.9524 8.55215L12.8975 8.56707C11.6323 8.57325 10.6021 7.54443 10.5958 6.26858L10.5808 3.18786C10.5746 1.91201 11.5947 0.873183 12.8598 0.867005" fill="#FF8500"/>
<path fill-rule="evenodd" clip-rule="evenodd" d="M2.45085 0.917832L5.50577 0.902914C6.77094 0.896735 7.80115 1.92555 7.80738 3.2014L7.82242 6.28212C7.82865 7.55797 6.80854 8.5968 5.54337 8.60298L2.48846 8.6179C1.22329 8.62407 0.193076 7.59526 0.186845 6.31941L0.171801 3.23869C0.165571 1.96284 1.18569 0.92401 2.45085 0.917832ZM2.50139 11.2623L5.55631 11.2474C6.82148 11.2413 7.85169 12.2701 7.85792 13.5459L7.87296 16.6266C7.87919 17.9016 6.85908 18.9413 5.59391 18.9475L2.53899 18.9624C1.27383 18.9686 0.24361 17.9389 0.237384 16.6639L0.22234 13.5832C0.21611 12.3074 1.23622 11.2685 2.50139 11.2623ZM15.9653 11.1966L12.9104 11.2115C11.6452 11.2177 10.6251 12.2565 10.6313 13.5324L10.6464 16.6131C10.6526 17.8881 11.6828 18.9178 12.948 18.9116L16.0029 18.8967C17.2681 18.8905 18.2882 17.8508 18.282 16.5758L18.2669 13.4951C18.2607 12.2192 17.2305 11.1904 15.9653 11.1966Z" fill="#FF8500"/>
</svg>
