<svg width="23" height="23" viewBox="0 0 23 23" fill="none" xmlns="http://www.w3.org/2000/svg">
<path fill-rule="evenodd" clip-rule="evenodd" d="M17.0342 10.1179C17.0207 7.34804 15.9808 5.03434 13.3975 4.43342L13.3879 2.46656L9.77895 2.48418L9.78855 4.45104C7.20215 5.07721 6.19391 7.39189 6.20748 10.1708L6.23171 15.133L4.43166 16.0441L4.44047 17.8485L18.8761 17.778L18.8673 15.9736L17.0585 15.0801L17.0342 10.1179ZM12.0322 20.4821C11.9151 20.5097 11.7978 20.5193 11.6715 20.52C10.6701 20.5248 9.8631 19.7168 9.84923 18.7244L13.4582 18.7067C13.4594 18.9594 13.4154 19.1942 13.3263 19.4111C13.0943 19.9536 12.6181 20.3529 12.0322 20.4821Z" fill="#303030"/>
<circle cx="16.1078" cy="5.16002" r="3.3834" transform="rotate(-0.279791 16.1078 5.16002)" fill="#FF8500" stroke="white" stroke-width="1.35336"/>
</svg>
