<svg width="15" height="16" viewBox="0 0 15 16" fill="none" xmlns="http://www.w3.org/2000/svg">
<path d="M7.63491 3.90372C4.98006 3.91668 2.83045 6.07943 2.84337 8.72456C2.85629 11.3697 5.02691 13.5113 7.68176 13.4984C10.3366 13.4854 12.4862 11.3227 12.4733 8.67753C12.4604 6.03241 10.2898 3.89075 7.63491 3.90372ZM7.6759 12.299C5.68431 12.3088 4.0568 10.703 4.04711 8.71868C4.03742 6.73439 5.64917 5.11278 7.64076 5.10305C9.63235 5.09332 11.2599 6.69912 11.2696 8.68341C11.2792 10.6677 9.66749 12.2893 7.6759 12.299Z" fill="#8C8C8C"/>
<path d="M7.04475 6.30532L8.24849 6.29944L8.26313 9.29777L7.05939 9.30365L7.04475 6.30532ZM5.82051 2.11354L9.43173 2.0959L9.43759 3.29524L5.82637 3.31287L5.82051 2.11354Z" fill="#8C8C8C"/>
<path d="M12.0321 5.50556L10.8227 4.31226L11.6698 3.46007L12.8791 4.65336L12.0321 5.50556Z" fill="#8C8C8C"/>
</svg>
